CMD: /usr/local/bin/ffmpeg -y -i /Users/marcusduggs/Golf_Caddie/media/input/video-13568_singular_display.MOV -i /var/folders/_d/nl4vd3js3qn2m8srxyjyns5r0000gn/T/mapbox_map_1375fb74.png -filter_complex [1:v]scale=465:-1[map];[0:v][map]overlay=main_w-overlay_w-10:main_h-overlay_h-10 -map 0:a? -c:v libx264 -preset veryfast -crf 23 -pix_fmt yuv420p -c:a aac -b:a 128k -movflags +faststart /Users/marcusduggs/Golf_Caddie/media/output/video-13568_singular_display_processed.mp4

STDOUT:


STDERR:
ffmpeg version 8.0 Copyright (c) 2000-2025 the FFmpeg developers
  built with Apple clang version 16.0.0 (clang-1600.0.26.6)
  configuration: --prefix=/usr/local/Cellar/ffmpeg/8.0_1 --enable-shared --enable-pthreads --enable-version3 --cc=clang --host-cflags= --host-ldflags='-Wl,-ld_classic' --enable-ffplay --enable-gnutls --enable-gpl --enable-libaom --enable-libaribb24 --enable-libbluray --enable-libdav1d --enable-libharfbuzz --enable-libjxl --enable-libmp3lame --enable-libopus --enable-librav1e --enable-librist --enable-librubberband --enable-libsnappy --enable-libsrt --enable-libssh --enable-libsvtav1 --enable-libtesseract --enable-libtheora --enable-libvidstab --enable-libvmaf --enable-libvorbis --enable-libvpx --enable-libwebp --enable-libx264 --enable-libx265 --enable-libxml2 --enable-libxvid --enable-lzma --enable-libfontconfig --enable-libfreetype --enable-frei0r --enable-libass --enable-libopencore-amrnb --enable-libopencore-amrwb --enable-libopenjpeg --enable-libspeex --enable-libsoxr --enable-libzmq --enable-libzimg --disable-libjack --disable-indev=jack --enable-videotoolbox --enable-audiotoolbox
  libavutil      60.  8.100 / 60.  8.100
  libavcodec     62. 11.100 / 62. 11.100
  libavformat    62.  3.100 / 62.  3.100
  libavdevice    62.  1.100 / 62.  1.100
  libavfilter    11.  4.100 / 11.  4.100
  libswscale      9.  1.100 /  9.  1.100
  libswresample   6.  1.100 /  6.  1.100
Input #0, mov,mp4,m4a,3gp,3g2,mj2, from '/Users/marcusduggs/Golf_Caddie/media/input/video-13568_singular_display.MOV':
  Metadata:
    major_brand     : qt  
    minor_version   : 0
    compatible_brands: qt  
    creation_time   : 2024-11-11T01:03:17.000000Z
    com.apple.quicktime.copyright: Meta View
    com.apple.quicktime.location.ISO6709: +37.7170-121.8552/
    com.apple.quicktime.comment: app=Meta View&device=Ray-Ban Meta Smart Glasses&id=F26F0B0C-17F3-4144-BFB3-FD59689CABF0
    com.apple.quicktime.model: Ray-Ban Meta Smart Glasses
    com.apple.quicktime.creationdate: 2024-11-11T00:53:02Z
  Duration: 00:00:06.23, start: 0.000000, bitrate: 15578 kb/s
  Stream #0:0[0x1](und): Video: hevc (Main 10) (hvc1 / 0x31637668), yuv420p10le(tv, bt709, progressive), 1552x2064, 15328 kb/s, 30.01 fps, 30 tbr, 600 tbn (default)
    Metadata:
      creation_time   : 2024-11-11T01:03:17.000000Z
      handler_name    : Core Media Video
      vendor_id       : [0][0][0][0]
      encoder         : 'hvc1'
  Stream #0:1[0x2](und): Audio: aac (LC) (mp4a / 0x6134706D), 44100 Hz, stereo, fltp, 243 kb/s (default)
    Metadata:
      creation_time   : 2024-11-11T01:03:17.000000Z
      handler_name    : Core Media Audio
      vendor_id       : [0][0][0][0]
Input #1, png_pipe, from '/var/folders/_d/nl4vd3js3qn2m8srxyjyns5r0000gn/T/mapbox_map_1375fb74.png':
  Duration: N/A, bitrate: N/A
  Stream #1:0: Video: png, pal8(pc, gbr/unknown/unknown), 500x600, 25 fps, 25 tbr, 25 tbn
Stream mapping:
  Stream #0:0 (hevc) -> overlay
  Stream #1:0 (png) -> scale:default
  overlay:default -> Stream #0:0 (libx264)
  Stream #0:1 -> #0:1 (aac (native) -> aac (native))
Press [q] to stop, [?] for help
[libx264 @ 0x7fe8c090d740] using cpu capabilities: MMX2 SSE2Fast SSSE3 SSE4.2 AVX FMA3 BMI2 AVX2
[libx264 @ 0x7fe8c090d740] profile High, level 5.0, 4:2:0, 8-bit
[libx264 @ 0x7fe8c090d740] 264 - core 165 r3222 b35605a - H.264/MPEG-4 AVC codec - Copyleft 2003-2025 - http://www.videolan.org/x264.html - options: cabac=1 ref=1 deblock=1:0:0 analyse=0x3:0x113 me=hex subme=2 psy=1 psy_rd=1.00:0.00 mixed_ref=0 me_range=16 chroma_me=1 trellis=0 8x8dct=1 cqm=0 deadzone=21,11 fast_pskip=1 chroma_qp_offset=0 threads=12 lookahead_threads=4 sliced_threads=0 nr=0 decimate=1 interlaced=0 bluray_compat=0 constrained_intra=0 bframes=3 b_pyramid=2 b_adapt=1 b_bias=0 direct=1 weightb=1 open_gop=0 weightp=1 keyint=250 keyint_min=25 scenecut=40 intra_refresh=0 rc_lookahead=10 rc=crf mbtree=1 crf=23.0 qcomp=0.60 qpmin=0 qpmax=69 qpstep=4 ip_ratio=1.40 aq=1:1.00
Output #0, mp4, to '/Users/marcusduggs/Golf_Caddie/media/output/video-13568_singular_display_processed.mp4':
  Metadata:
    major_brand     : qt  
    minor_version   : 0
    compatible_brands: qt  
    com.apple.quicktime.creationdate: 2024-11-11T00:53:02Z
    com.apple.quicktime.copyright: Meta View
    com.apple.quicktime.location.ISO6709: +37.7170-121.8552/
    com.apple.quicktime.comment: app=Meta View&device=Ray-Ban Meta Smart Glasses&id=F26F0B0C-17F3-4144-BFB3-FD59689CABF0
    com.apple.quicktime.model: Ray-Ban Meta Smart Glasses
    encoder         : Lavf62.3.100
  Stream #0:0: Video: h264 (avc1 / 0x31637661), yuv420p(tv, bt709, progressive), 1552x2064, q=2-31, 30 fps, 15360 tbn
    Metadata:
      encoder         : Lavc62.11.100 libx264
    Side data:
      cpb: bitrate max/min/avg: 0/0/0 buffer size: 0 vbv_delay: N/A
  Stream #0:1(und): Audio: aac (LC) (mp4a / 0x6134706D), 44100 Hz, stereo, fltp, 128 kb/s (default)
    Metadata:
      encoder         : Lavc62.11.100 aac
      creation_time   : 2024-11-11T01:03:17.000000Z
      handler_name    : Core Media Audio
      vendor_id       : [0][0][0][0]
frame=    0 fps=0.0 q=0.0 size=       0KiB time=N/A bitrate=N/A speed=N/A elapsed=0:00:00.50    
frame=    5 fps=5.0 q=29.0 size=     256KiB time=00:00:00.10 bitrate=20975.4kbits/s speed=0.0999x elapsed=0:00:01.00    
frame=   28 fps= 19 q=29.0 size=     768KiB time=00:00:00.86 bitrate=7259.8kbits/s speed=0.577x elapsed=0:00:01.50    
frame=   51 fps= 25 q=29.0 size=    1536KiB time=00:00:01.63 bitrate=7704.1kbits/s speed=0.814x elapsed=0:00:02.00    
frame=   73 fps= 29 q=29.0 size=    2048KiB time=00:00:02.36 bitrate=7089.1kbits/s speed=0.944x elapsed=0:00:02.50    
frame=   99 fps= 33 q=29.0 size=    2816KiB time=00:00:03.23 bitrate=7134.8kbits/s speed=1.07x elapsed=0:00:03.01    
frame=  123 fps= 35 q=29.0 size=    3328KiB time=00:00:04.03 bitrate=6759.5kbits/s speed=1.14x elapsed=0:00:03.53    
frame=  151 fps= 37 q=29.0 size=    3840KiB time=00:00:04.96 bitrate=6333.8kbits/s speed=1.23x elapsed=0:00:04.04    
[mp4 @ 0x7fe8c090e280] Starting second pass: moving the moov atom to the beginning of the file
[out#0/mp4 @ 0x7fe8c090ee80] video:4485KiB audio:95KiB subtitle:0KiB other streams:0KiB global headers:0KiB muxing overhead: 0.173238%
frame=  187 fps= 44 q=-1.0 Lsize=    4588KiB time=00:00:06.15 bitrate=6109.7kbits/s speed=1.43x elapsed=0:00:04.29    
[libx264 @ 0x7fe8c090d740] frame I:1     Avg QP:24.13  size:162368
[libx264 @ 0x7fe8c090d740] frame P:59    Avg QP:23.56  size: 56529
[libx264 @ 0x7fe8c090d740] frame B:127   Avg QP:25.97  size:  8621
[libx264 @ 0x7fe8c090d740] consecutive B-frames:  2.7% 17.1%  9.6% 70.6%
[libx264 @ 0x7fe8c090d740] mb I  I16..4:  7.3% 67.6% 25.1%
[libx264 @ 0x7fe8c090d740] mb P  I16..4:  3.4% 17.4%  0.6%  P16..4: 35.3% 12.8%  5.5%  0.0%  0.0%    skip:25.0%
[libx264 @ 0x7fe8c090d740] mb B  I16..4:  0.2%  0.5%  0.0%  B16..8: 13.6%  2.4%  0.1%  direct: 7.0%  skip:76.2%  L0:28.1% L1:60.6% BI:11.4%
[libx264 @ 0x7fe8c090d740] 8x8 transform intra:80.0% inter:56.0%
[libx264 @ 0x7fe8c090d740] coded y,uvDC,uvAC intra: 48.7% 39.3% 5.9% inter: 11.1% 6.6% 0.0%
[libx264 @ 0x7fe8c090d740] i16 v,h,dc,p: 48% 25% 16% 11%
[libx264 @ 0x7fe8c090d740] i8 v,h,dc,ddl,ddr,vr,hd,vl,hu: 13% 35% 27%  3%  3%  2%  6%  2%  7%
[libx264 @ 0x7fe8c090d740] i4 v,h,dc,ddl,ddr,vr,hd,vl,hu: 14% 21% 15%  8% 10%  7% 11%  6%  9%
[libx264 @ 0x7fe8c090d740] i8c dc,h,v,p: 57% 29% 10%  4%
[libx264 @ 0x7fe8c090d740] Weighted P-Frames: Y:5.1% UV:0.0%
[libx264 @ 0x7fe8c090d740] kb/s:5894.04
[aac @ 0x7fe8c090b940] Qavg: 4175.268
